<?xml version="1.0" encoding="UTF-8"?>
<svg width="22px" height="22px" viewBox="0 0 22 22" version="1.1" xmlns="http://www.w3.org/2000/svg" xmlns:xlink="http://www.w3.org/1999/xlink">
    <title>icon-yellow</title>
    <g id="Page-1" stroke="none" stroke-width="1" fill="none" fill-rule="evenodd">
        <g id="icon-yellow" transform="translate(0, -0)" fill="#FFFF54" fill-rule="nonzero">
            <path d="M19.45,16.44 L21.24,18.25 C20.38,19.21 19.5,20.14 18.62,21.08 L18.58,21.08 C17.97,20.45 17.35,19.83 16.75,19.2 C12.49,22.13 7.73,21.61 3.63,18.69 L3.23,19.01 C3.28,19.17 3.31,19.34 3.31,19.51 C3.31,20.42 2.56,21.16 1.65,21.16 C1.45,21.16 1.24,21.12 1.06,21.05 C0.72,20.93 0.44,20.7 0.27,20.41 C0.1,20.15 0,19.84 0,19.51 C0,18.6 0.74,17.85 1.65,17.85 C1.87,17.85 2.07,17.9 2.26,17.97 L2.26,17.97 L2.49,17.69 C1.85,17.04 1.29,16.43 0.79,15.69 L2.48,14.03 C5.51,17.53 11.44,18.52 13.69,16.21 C11.51,14.03 9.32,11.87 7.15,9.67 C6.51,10.31 5.79,11 5.18,11.67 L2.05,8.48 L7.49,3.18 C8.51,3.56 9.69,3.58 10.61,2.63 L12.33,4.36 L9.82,6.87 C12.18,9.2 14.16,11.2 16.5,13.55 C19.63,9.17 16,1.86 10.9,0 C19.4,0.37 24.53,9.01 19.45,16.45 L19.45,16.45 L19.45,16.44 Z" id="Path"></path>
        </g>
    </g>
</svg>