<?xml version="1.0" encoding="UTF-8"?>
<svg id="_图层_2" data-name="图层 2" xmlns="http://www.w3.org/2000/svg" xmlns:xlink="http://www.w3.org/1999/xlink" viewBox="0 0 21.47 21.17">
  <defs>
    <style>
      .cls-1 {
        fill: url(#_未命名的渐变_4);
        stroke-width: 0px;
      }
    </style>
    <linearGradient id="_未命名的渐变_4" data-name="未命名的渐变 4" x1="6.29" y1="4.03" x2="14.01" y2="21.41" gradientUnits="userSpaceOnUse">
      <stop offset=".09" stop-color="#fff9e6"/>
      <stop offset=".37" stop-color="#e5c5a6"/>
      <stop offset="1" stop-color="#d9ac7f"/>
    </linearGradient>
  </defs>
  <g id="_图层_1-2" data-name="图层 1">
    <path class="cls-1" d="m19.45,16.45l1.79,1.81c-.86.96-1.74,1.89-2.62,2.83h-.04c-.61-.63-1.23-1.25-1.83-1.88-4.26,2.93-9.02,2.41-13.12-.51l-.4.32c.05.16.08.33.08.5,0,.91-.75,1.65-1.66,1.65-.2,0-.41-.04-.59-.11-.34-.12-.62-.35-.79-.64-.17-.26-.27-.57-.27-.9,0-.91.74-1.66,1.65-1.66.22,0,.42.05.61.12h0l.23-.28c-.64-.65-1.2-1.26-1.7-2l1.69-1.66c3.03,3.5,8.96,4.49,11.21,2.18-2.18-2.18-4.37-4.34-6.54-6.54-.64.64-1.36,1.33-1.97,2l-3.13-3.19L7.49,3.19c1.02.38,2.2.4,3.12-.55l1.72,1.73-2.51,2.51c2.36,2.33,4.34,4.33,6.68,6.68,3.13-4.38-.5-11.69-5.6-13.55,8.5.37,13.63,9.01,8.55,16.45h0Z"/>
  </g>
</svg>